<?xml version="1.0" encoding="utf-8"?>
<!-- Generator: Adobe Illustrator 24.2.0, SVG Export Plug-In . SVG Version: 6.00 Build 0)  -->
<svg version="1.1" id="Layer_1" xmlns="http://www.w3.org/2000/svg" xmlns:xlink="http://www.w3.org/1999/xlink" x="0px" y="0px"
	 viewBox="0 0 1000 1000" style="enable-background:new 0 0 1000 1000;" xml:space="preserve">
<style type="text/css">
	.st0{fill:#010101;}
</style>
<path class="st0" d="M213.7,352.5c79.1,0,97.5,77.9,86.5,147.5c-11.1,69.6-54.6,147.5-133.6,147.5S68.9,569.6,80.1,500
	C91.2,430.4,134.6,352.5,213.7,352.5z M178,575.6c29.5,0,39.8-57.8,42.7-75.6c2.9-17.7,10.9-75.6-18.5-75.6
	c-29.5,0-39.8,57.9-42.7,75.6C156.7,517.7,148.6,575.6,178,575.6L178,575.6z M341.2,357.4h91.7c45.8,0,96.2,19.7,86.3,81.3
	c-5.1,32.1-30.2,57.1-63,57.1l-0.1,0.8c37.7,3,54.2,26.4,48.1,64.7c-5.6,35.2-34.4,81.3-103.9,81.3H295.6L341.2,357.4z M389.9,580.9
	c17.2,0,33.8-8.3,36.9-27.6c3.1-19.3-10.6-27.2-28.5-27.2h-6.1l-8.8,54.8L389.9,580.9L389.9,580.9L389.9,580.9z M406,468.2
	c16,0,32-6.4,34.9-25c2.7-17.1-8-24.2-24-24.2h-7.6l-7.8,49.2H406L406,468.2z M555.1,357.4h144.8l-10.8,67.3h-66.8l-6.3,39.7h60
	l-10.8,67.3h-60l-6.9,43.5H665l-10.8,67.3H509.5L555.1,357.4z M732.1,642.6l19.4-121.1l-44.8-164.1h81l12.7,88.1h0.8l41.2-88.1h80.6
	l-93.5,164.1L810,642.6L732.1,642.6L732.1,642.6z M891.6,634.1c-5.7,5.7-12.5,8.5-20.5,8.5c-8,0-14.8-2.8-20.4-8.5
	c-5.6-5.6-8.4-12.4-8.4-20.5c0-7.9,2.8-14.7,8.4-20.4c5.6-5.6,12.4-8.4,20.3-8.4c8,0,14.8,2.8,20.5,8.4c5.6,5.6,8.4,12.4,8.4,20.4
	C900.1,621.6,897.3,628.4,891.6,634.1z M853.6,596.1c-4.8,4.8-7.3,10.7-7.3,17.5c0,6.9,2.4,12.8,7.2,17.7c4.9,4.8,10.7,7.3,17.6,7.3
	c6.9,0,12.8-2.4,17.6-7.3c4.8-4.9,7.3-10.8,7.3-17.7c0-6.9-2.4-12.7-7.3-17.5c-4.9-4.9-10.7-7.3-17.6-7.3
	C864.3,588.8,858.5,591.3,853.6,596.1z M870.7,597.6c3.9,0,6.8,0.4,8.7,1.2c3.3,1.4,4.9,4,4.9,8c0,2.8-1,4.9-3.1,6.3
	c-1.1,0.7-2.6,1.2-4.6,1.5c2.5,0.4,4.2,1.4,5.4,3.1c1.1,1.7,1.7,3.3,1.7,4.9v2.3c0,0.7,0,1.5,0.1,2.4c0.1,0.9,0.2,1.4,0.3,1.6
	l0.2,0.4h-5.3c0-0.1-0.1-0.2-0.1-0.3c0-0.1,0-0.2-0.1-0.4l-0.1-1v-2.5c0-3.7-1-6.1-3-7.3c-1.2-0.7-3.2-1-6.2-1H865v12.5h-5.4v-31.7
	H870.7L870.7,597.6z M876.7,602.8c-1.4-0.8-3.7-1.2-6.8-1.2H865v11.3h5.1c2.4,0,4.2-0.2,5.4-0.7c2.2-0.8,3.3-2.5,3.3-4.9
	C878.8,605.1,878.1,603.5,876.7,602.8L876.7,602.8z"/>
</svg>
